<svg width="384" height="198" viewBox="0 0 384 198" fill="none" xmlns="http://www.w3.org/2000/svg">
<path d="M238.418 97.7071C238.808 98.0976 239.442 98.0976 239.832 97.7071L246.196 91.3431C246.587 90.9526 246.587 90.3195 246.196 89.9289C245.806 89.5384 245.172 89.5384 244.782 89.9289L239.125 95.5858L233.468 89.9289C233.078 89.5384 232.444 89.5384 232.054 89.9289C231.663 90.3195 231.663 90.9526 232.054 91.3431L238.418 97.7071ZM238.125 73L238.125 97L240.125 97L240.125 73L238.125 73Z" fill="black"/>
<circle cx="239.125" cy="62" r="11" stroke="black" stroke-width="2"/>
<path d="M238.289 171.703C238.678 172.096 239.311 172.099 239.703 171.711L246.1 165.38C246.493 164.992 246.496 164.358 246.108 163.966C245.719 163.573 245.086 163.57 244.694 163.958L239.007 169.586L233.38 163.9C232.992 163.507 232.358 163.504 231.966 163.892C231.573 164.281 231.57 164.914 231.958 165.306L238.289 171.703ZM238.125 146.995L238 170.995L240 171.005L240.125 147.005L238.125 146.995Z" fill="black"/>
<path d="M189.832 122.707C190.223 122.317 190.223 121.683 189.832 121.293L183.468 114.929C183.078 114.538 182.444 114.538 182.054 114.929C181.663 115.319 181.663 115.953 182.054 116.343L187.711 122L182.054 127.657C181.663 128.047 181.663 128.681 182.054 129.071C182.444 129.462 183.078 129.462 183.468 129.071L189.832 122.707ZM166.125 123H189.125V121H166.125V123Z" fill="black"/>
<line x1="239.125" y1="72" x2="239.125" y2="25" stroke="black" stroke-width="2"/>
<line x1="250.125" y1="62" x2="227.125" y2="62" stroke="black" stroke-width="2"/>
<path d="M226.832 62.7071C227.223 62.3166 227.223 61.6834 226.832 61.2929L220.468 54.9289C220.078 54.5384 219.444 54.5384 219.054 54.9289C218.663 55.3195 218.663 55.9526 219.054 56.3431L224.711 62L219.054 67.6569C218.663 68.0474 218.663 68.6805 219.054 69.0711C219.444 69.4616 220.078 69.4616 220.468 69.0711L226.832 62.7071ZM202.125 63H226.125V61H202.125V63Z" fill="black"/>
<path d="M383.707 62.7071C384.098 62.3166 384.098 61.6834 383.707 61.2929L377.343 54.9289C376.953 54.5384 376.319 54.5384 375.929 54.9289C375.538 55.3195 375.538 55.9526 375.929 56.3431L381.586 62L375.929 67.6569C375.538 68.0474 375.538 68.6805 375.929 69.0711C376.319 69.4616 376.953 69.4616 377.343 69.0711L383.707 62.7071ZM360 63L383 63V61L360 61V63Z" fill="black"/>
<line x1="336" y1="185" x2="360" y2="185" stroke="black" stroke-width="2"/>
<line x1="359" y1="184.993" x2="359.877" y2="60.9929" stroke="black" stroke-width="2"/>
</svg>
