<svg width="384" height="236" viewBox="0 0 384 236" fill="none" xmlns="http://www.w3.org/2000/svg">
<path d="M231.418 97.7071C231.808 98.0976 232.442 98.0976 232.832 97.7071L239.196 91.3431C239.587 90.9526 239.587 90.3195 239.196 89.9289C238.806 89.5384 238.172 89.5384 237.782 89.9289L232.125 95.5858L226.468 89.9289C226.078 89.5384 225.444 89.5384 225.054 89.9289C224.663 90.3195 224.663 90.9526 225.054 91.3431L231.418 97.7071ZM231.125 73L231.125 97L233.125 97L233.125 73L231.125 73Z" fill="black"/>
<circle cx="232.125" cy="62" r="11" stroke="black" stroke-width="2"/>
<path d="M231.418 209.707C231.808 210.098 232.442 210.098 232.832 209.707L239.196 203.343C239.587 202.953 239.587 202.319 239.196 201.929C238.806 201.538 238.172 201.538 237.782 201.929L232.125 207.586L226.468 201.929C226.078 201.538 225.444 201.538 225.054 201.929C224.663 202.319 224.663 202.953 225.054 203.343L231.418 209.707ZM231.125 161L231.125 209L233.125 209L233.125 161L231.125 161Z" fill="black"/>
<path d="M134.832 130.707C135.223 130.317 135.223 129.683 134.832 129.293L128.468 122.929C128.078 122.538 127.444 122.538 127.054 122.929C126.663 123.319 126.663 123.953 127.054 124.343L132.711 130L127.054 135.657C126.663 136.047 126.663 136.681 127.054 137.071C127.444 137.462 128.078 137.462 128.468 137.071L134.832 130.707ZM111.125 131H134.125V129H111.125V131Z" fill="black"/>
<line x1="232.125" y1="72" x2="232.125" y2="25" stroke="black" stroke-width="2"/>
<line x1="243.125" y1="62" x2="220.125" y2="62" stroke="black" stroke-width="2"/>
<path d="M219.832 62.7071C220.223 62.3166 220.223 61.6834 219.832 61.2929L213.468 54.9289C213.078 54.5384 212.444 54.5384 212.054 54.9289C211.663 55.3195 211.663 55.9526 212.054 56.3431L217.711 62L212.054 67.6569C211.663 68.0474 211.663 68.6805 212.054 69.0711C212.444 69.4616 213.078 69.4616 213.468 69.0711L219.832 62.7071ZM195.125 63H219.125V61H195.125V63Z" fill="black"/>
<path d="M383.582 62.7071C383.973 62.3166 383.973 61.6834 383.582 61.2929L377.218 54.9289C376.828 54.5384 376.194 54.5384 375.804 54.9289C375.413 55.3195 375.413 55.9526 375.804 56.3431L381.461 62L375.804 67.6569C375.413 68.0474 375.413 68.6805 375.804 69.0711C376.194 69.4616 376.828 69.4616 377.218 69.0711L383.582 62.7071ZM351.875 63L382.875 63V61L351.875 61V63Z" fill="black"/>
<line x1="232.625" y1="184" x2="352.625" y2="184" stroke="black" stroke-width="2"/>
<line x1="352.625" y1="184.998" x2="352.877" y2="60.998" stroke="black" stroke-width="2"/>
</svg>
