<svg width="384" height="236" viewBox="0 0 384 236" fill="none" xmlns="http://www.w3.org/2000/svg">
<rect x="142.625" y="0.5" width="193" height="25" stroke="black"/>
<rect x="142.625" y="210.5" width="193" height="25" stroke="black"/>
<rect x="54.625" y="118.5" width="63" height="23" stroke="black"/>
<rect x="142.625" y="98.5" width="193" height="63" stroke="black"/>
<path d="M238.418 97.7071C238.808 98.0976 239.442 98.0976 239.832 97.7071L246.196 91.3431C246.587 90.9526 246.587 90.3195 246.196 89.9289C245.806 89.5384 245.172 89.5384 244.782 89.9289L239.125 95.5858L233.468 89.9289C233.078 89.5384 232.444 89.5384 232.054 89.9289C231.663 90.3195 231.663 90.9526 232.054 91.3431L238.418 97.7071ZM238.125 73L238.125 97L240.125 97L240.125 73L238.125 73Z" fill="black"/>
<circle cx="239.125" cy="62" r="11" stroke="black" stroke-width="2"/>
<path d="M238.418 209.707C238.808 210.098 239.442 210.098 239.832 209.707L246.196 203.343C246.587 202.953 246.587 202.319 246.196 201.929C245.806 201.538 245.172 201.538 244.782 201.929L239.125 207.586L233.468 201.929C233.078 201.538 232.444 201.538 232.054 201.929C231.663 202.319 231.663 202.953 232.054 203.343L238.418 209.707ZM238.125 161L238.125 209L240.125 209L240.125 161L238.125 161Z" fill="black"/>
<path d="M141.832 130.707C142.223 130.317 142.223 129.683 141.832 129.293L135.468 122.929C135.078 122.538 134.444 122.538 134.054 122.929C133.663 123.319 133.663 123.953 134.054 124.343L139.711 130L134.054 135.657C133.663 136.047 133.663 136.681 134.054 137.071C134.444 137.462 135.078 137.462 135.468 137.071L141.832 130.707ZM118.125 131H141.125V129H118.125V131Z" fill="black"/>
<rect x="8.625" y="49.5" width="193" height="25" stroke="black"/>
<line x1="239.125" y1="72" x2="239.125" y2="25" stroke="black" stroke-width="2"/>
<line x1="250.125" y1="62" x2="227.125" y2="62" stroke="black" stroke-width="2"/>
<path d="M226.832 62.7071C227.223 62.3166 227.223 61.6834 226.832 61.2929L220.468 54.9289C220.078 54.5384 219.444 54.5384 219.054 54.9289C218.663 55.3195 218.663 55.9526 219.054 56.3431L224.711 62L219.054 67.6569C218.663 68.0474 218.663 68.6805 219.054 69.0711C219.444 69.4616 220.078 69.4616 220.468 69.0711L226.832 62.7071ZM202.125 63H226.125V61H202.125V63Z" fill="black"/>
<path d="M383.707 62.7071C384.098 62.3166 384.098 61.6834 383.707 61.2929L377.343 54.9289C376.953 54.5384 376.319 54.5384 375.929 54.9289C375.538 55.3195 375.538 55.9526 375.929 56.3431L381.586 62L375.929 67.6569C375.538 68.0474 375.538 68.6805 375.929 69.0711C376.319 69.4616 376.953 69.4616 377.343 69.0711L383.707 62.7071ZM360 63L383 63V61L360 61V63Z" fill="black"/>
<line x1="239.625" y1="184" x2="359.625" y2="184" stroke="black" stroke-width="2"/>
<line x1="360" y1="185.001" x2="359.877" y2="61.001" stroke="black" stroke-width="2"/>
</svg>
