<svg width="384" height="212" viewBox="0 0 384 212" fill="none" xmlns="http://www.w3.org/2000/svg">
<path d="M238.293 49.7071C238.683 50.0976 239.317 50.0976 239.707 49.7071L246.071 43.3431C246.462 42.9526 246.462 42.3195 246.071 41.9289C245.681 41.5384 245.047 41.5384 244.657 41.9289L239 47.5858L233.343 41.9289C232.953 41.5384 232.319 41.5384 231.929 41.9289C231.538 42.3195 231.538 42.9526 231.929 43.3431L238.293 49.7071ZM238 25L238 49L240 49L240 25L238 25Z" fill="black"/>
<path d="M238.293 123.707C238.683 124.098 239.317 124.098 239.707 123.707L246.071 117.343C246.462 116.953 246.462 116.319 246.071 115.929C245.681 115.538 245.047 115.538 244.657 115.929L239 121.586L233.343 115.929C232.953 115.538 232.319 115.538 231.929 115.929C231.538 116.319 231.538 116.953 231.929 117.343L238.293 123.707ZM238 99L238 123L240 123L240 99L238 99Z" fill="black"/>
<circle cx="239" cy="135" r="11" stroke="black" stroke-width="2"/>
<path d="M189.707 75.7071C190.098 75.3166 190.098 74.6834 189.707 74.2929L183.343 67.9289C182.953 67.5384 182.319 67.5384 181.929 67.9289C181.538 68.3195 181.538 68.9526 181.929 69.3431L187.586 75L181.929 80.6569C181.538 81.0474 181.538 81.6805 181.929 82.0711C182.319 82.4616 182.953 82.4616 183.343 82.0711L189.707 75.7071ZM166 76H189V74H166V76Z" fill="black"/>
<path d="M238.293 171.707C238.683 172.098 239.317 172.098 239.707 171.707L246.071 165.343C246.462 164.953 246.462 164.319 246.071 163.929C245.681 163.538 245.047 163.538 244.657 163.929L239 169.586L233.343 163.929C232.953 163.538 232.319 163.538 231.929 163.929C231.538 164.319 231.538 164.953 231.929 165.343L238.293 171.707ZM238 124V171H240V124H238Z" fill="black"/>
<line x1="228.5" y1="135" x2="250.5" y2="135" stroke="black" stroke-width="2"/>
<path d="M227.207 135.707C227.598 135.317 227.598 134.683 227.207 134.293L220.843 127.929C220.453 127.538 219.819 127.538 219.429 127.929C219.038 128.319 219.038 128.953 219.429 129.343L225.086 135L219.429 140.657C219.038 141.047 219.038 141.681 219.429 142.071C219.819 142.462 220.453 142.462 220.843 142.071L227.207 135.707ZM202.5 136H226.5V134H202.5V136Z" fill="black"/>
</svg>
