<svg width="384" height="212" viewBox="0 0 384 212" fill="none" xmlns="http://www.w3.org/2000/svg">
<path d="M229.293 49.7071C229.683 50.0976 230.317 50.0976 230.707 49.7071L237.071 43.3431C237.462 42.9526 237.462 42.3195 237.071 41.9289C236.681 41.5384 236.047 41.5384 235.657 41.9289L230 47.5858L224.343 41.9289C223.953 41.5384 223.319 41.5384 222.929 41.9289C222.538 42.3195 222.538 42.9526 222.929 43.3431L229.293 49.7071ZM229 25L229 49L231 49L231 25L229 25Z" fill="black"/>
<path d="M229.293 137.707C229.683 138.098 230.317 138.098 230.707 137.707L237.071 131.343C237.462 130.953 237.462 130.319 237.071 129.929C236.681 129.538 236.047 129.538 235.657 129.929L230 135.586L224.343 129.929C223.953 129.538 223.319 129.538 222.929 129.929C222.538 130.319 222.538 130.953 222.929 131.343L229.293 137.707ZM229 113L229 137L231 137L231 113L229 113Z" fill="black"/>
<circle cx="230" cy="149" r="11" stroke="black" stroke-width="2"/>
<path d="M132.707 82.7071C133.098 82.3166 133.098 81.6834 132.707 81.2929L126.343 74.9289C125.953 74.5384 125.319 74.5384 124.929 74.9289C124.538 75.3195 124.538 75.9526 124.929 76.3431L130.586 82L124.929 87.6569C124.538 88.0474 124.538 88.6805 124.929 89.0711C125.319 89.4616 125.953 89.4616 126.343 89.0711L132.707 82.7071ZM109 83H132V81H109V83Z" fill="black"/>
<path d="M229.293 185.707C229.683 186.098 230.317 186.098 230.707 185.707L237.071 179.343C237.462 178.953 237.462 178.319 237.071 177.929C236.681 177.538 236.047 177.538 235.657 177.929L230 183.586L224.343 177.929C223.953 177.538 223.319 177.538 222.929 177.929C222.538 178.319 222.538 178.953 222.929 179.343L229.293 185.707ZM229 138V185H231V138H229Z" fill="black"/>
<line x1="219.5" y1="149" x2="241.5" y2="149" stroke="black" stroke-width="2"/>
<path d="M218.207 149.707C218.598 149.317 218.598 148.683 218.207 148.293L211.843 141.929C211.453 141.538 210.819 141.538 210.429 141.929C210.038 142.319 210.038 142.953 210.429 143.343L216.086 149L210.429 154.657C210.038 155.047 210.038 155.681 210.429 156.071C210.819 156.462 211.453 156.462 211.843 156.071L218.207 149.707ZM193.5 150H217.5V148H193.5V150Z" fill="black"/>
</svg>
