<svg width="422" height="292" viewBox="0 0 422 292" fill="none" xmlns="http://www.w3.org/2000/svg">
<line x1="218" y1="49" x2="354" y2="49" stroke="black" stroke-width="2"/>
<path d="M353 48.5L397.974 242.775" stroke="black" stroke-width="2"/>
<path d="M353.268 243.832L398 48.5" stroke="black" stroke-width="2"/>
<path d="M285.293 119.707C285.683 120.098 286.317 120.098 286.707 119.707L293.071 113.343C293.462 112.953 293.462 112.319 293.071 111.929C292.681 111.538 292.047 111.538 291.657 111.929L286 117.586L280.343 111.929C279.953 111.538 279.319 111.538 278.929 111.929C278.538 112.319 278.538 112.953 278.929 113.343L285.293 119.707ZM285 49L285 119L287 119L287 49L285 49Z" fill="black"/>
<circle cx="286" cy="243" r="11" stroke="black" stroke-width="2"/>
<path d="M273.707 243.707C274.098 243.317 274.098 242.683 273.707 242.293L267.343 235.929C266.953 235.538 266.319 235.538 265.929 235.929C265.538 236.319 265.538 236.953 265.929 237.343L271.586 243L265.929 248.657C265.538 249.047 265.538 249.681 265.929 250.071C266.319 250.462 266.953 250.462 267.343 250.071L273.707 243.707ZM218 244H273V242H218V244Z" fill="black"/>
<path d="M421.707 49.7071C422.098 49.3166 422.098 48.6834 421.707 48.2929L415.343 41.9289C414.953 41.5384 414.319 41.5384 413.929 41.9289C413.538 42.3195 413.538 42.9526 413.929 43.3431L419.586 49L413.929 54.6569C413.538 55.0474 413.538 55.6805 413.929 56.0711C414.319 56.4616 414.953 56.4616 415.343 56.0711L421.707 49.7071ZM397 50L421 50V48L397 48V50Z" fill="black"/>
<path d="M421.707 243.707C422.098 243.317 422.098 242.683 421.707 242.293L415.343 235.929C414.953 235.538 414.319 235.538 413.929 235.929C413.538 236.319 413.538 236.953 413.929 237.343L419.586 243L413.929 248.657C413.538 249.047 413.538 249.681 413.929 250.071C414.319 250.462 414.953 250.462 415.343 250.071L421.707 243.707ZM397 244H421V242H397V244Z" fill="black"/>
<line x1="276" y1="243" x2="354" y2="243" stroke="black" stroke-width="2"/>
<line x1="286" y1="233" x2="286" y2="253" stroke="black" stroke-width="2"/>
<path d="M330.5 120.5V171.5H240.5V120.5H285.5H330.5Z" stroke="black"/>
<path d="M287 172C287 171.448 286.552 171 286 171C285.448 171 285 171.448 285 172L287 172ZM285.293 230.707C285.683 231.098 286.317 231.098 286.707 230.707L293.071 224.343C293.462 223.953 293.462 223.319 293.071 222.929C292.681 222.538 292.047 222.538 291.657 222.929L286 228.586L280.343 222.929C279.953 222.538 279.319 222.538 278.929 222.929C278.538 223.319 278.538 223.953 278.929 224.343L285.293 230.707ZM285 172L285 230L287 230L287 172L285 172Z" fill="black"/>
</svg>
