<svg width="384" height="244" viewBox="0 0 384 244" fill="none" xmlns="http://www.w3.org/2000/svg">
<g clip-path="url(#clip0_100_23)">
<path d="M383.707 48.7071C384.098 48.3166 384.098 47.6834 383.707 47.2929L377.343 40.9289C376.953 40.5384 376.319 40.5384 375.929 40.9289C375.538 41.3195 375.538 41.9526 375.929 42.3431L381.586 48L375.929 53.6569C375.538 54.0474 375.538 54.6805 375.929 55.0711C376.319 55.4616 376.953 55.4616 377.343 55.0711L383.707 48.7071ZM356 49L383 49V47L356 47V49Z" fill="black"/>
<path d="M383.707 195.707C384.098 195.317 384.098 194.683 383.707 194.293L377.343 187.929C376.953 187.538 376.319 187.538 375.929 187.929C375.538 188.319 375.538 188.953 375.929 189.343L381.586 195L375.929 200.657C375.538 201.047 375.538 201.681 375.929 202.071C376.319 202.462 376.953 202.462 377.343 202.071L383.707 195.707ZM356 196H383V194H356V196Z" fill="black"/>
<path d="M305.707 48.7071C306.098 48.3166 306.098 47.6834 305.707 47.2929L299.343 40.9289C298.953 40.5384 298.319 40.5384 297.929 40.9289C297.538 41.3195 297.538 41.9526 297.929 42.3431L303.586 48L297.929 53.6569C297.538 54.0474 297.538 54.6805 297.929 55.0711C298.319 55.4616 298.953 55.4616 299.343 55.0711L305.707 48.7071ZM217 49H305V47H217V49Z" fill="black"/>
<path d="M46.7071 48.7071C47.0976 48.3166 47.0976 47.6834 46.7071 47.2929L40.3431 40.9289C39.9526 40.5384 39.3195 40.5384 38.9289 40.9289C38.5384 41.3195 38.5384 41.9526 38.9289 42.3431L44.5858 48L38.9289 53.6569C38.5384 54.0474 38.5384 54.6805 38.9289 55.0711C39.3195 55.4616 39.9526 55.4616 40.3431 55.0711L46.7071 48.7071ZM-1 49H46V47H-1V49Z" fill="black"/>
<path d="M46.7071 195.707C47.0976 195.317 47.0976 194.683 46.7071 194.293L40.3431 187.929C39.9526 187.538 39.3195 187.538 38.9289 187.929C38.5384 188.319 38.5384 188.953 38.9289 189.343L44.5858 195L38.9289 200.657C38.5384 201.047 38.5384 201.681 38.9289 202.071C39.3195 202.462 39.9526 202.462 40.3431 202.071L46.7071 195.707ZM-1 196H46V194H-1V196Z" fill="black"/>
<path d="M305.707 195.707C306.098 195.317 306.098 194.683 305.707 194.293L299.343 187.929C298.953 187.538 298.319 187.538 297.929 187.929C297.538 188.319 297.538 188.953 297.929 189.343L303.586 195L297.929 200.657C297.538 201.047 297.538 201.681 297.929 202.071C298.319 202.462 298.953 202.462 299.343 202.071L305.707 195.707ZM217 196H305V194H217V196Z" fill="black"/>
<path d="M260.293 108.707C260.683 109.098 261.317 109.098 261.707 108.707L268.071 102.343C268.462 101.953 268.462 101.319 268.071 100.929C267.681 100.538 267.047 100.538 266.657 100.929L261 106.586L255.343 100.929C254.953 100.538 254.319 100.538 253.929 100.929C253.538 101.319 253.538 101.953 253.929 102.343L260.293 108.707ZM260 49V108H262V49H260Z" fill="black"/>
<path d="M261.707 135.293C261.317 134.902 260.683 134.902 260.293 135.293L253.929 141.657C253.538 142.047 253.538 142.681 253.929 143.071C254.319 143.462 254.953 143.462 255.343 143.071L261 137.414L266.657 143.071C267.047 143.462 267.681 143.462 268.071 143.071C268.462 142.681 268.462 142.047 268.071 141.657L261.707 135.293ZM262 195L262 136L260 136L260 195L262 195Z" fill="black"/>
<path d="M309.707 122.707C310.098 122.317 310.098 121.683 309.707 121.293L303.343 114.929C302.953 114.538 302.319 114.538 301.929 114.929C301.538 115.319 301.538 115.953 301.929 116.343L307.586 122L301.929 127.657C301.538 128.047 301.538 128.681 301.929 129.071C302.319 129.462 302.953 129.462 303.343 129.071L309.707 122.707ZM286 123H309V121H286V123Z" fill="black"/>
</g>
<defs>
<clipPath id="clip0_100_23">
<rect width="384" height="244" fill="white"/>
</clipPath>
</defs>
</svg>
