<svg width="384" height="462" viewBox="0 0 384 462" fill="none" xmlns="http://www.w3.org/2000/svg">
<circle cx="192" cy="134" r="11" stroke="black" stroke-width="2"/>
<line x1="180" y1="134" x2="204" y2="134" stroke="black" stroke-width="2"/>
<path d="M191.293 169.707C191.683 170.098 192.317 170.098 192.707 169.707L199.071 163.343C199.462 162.953 199.462 162.319 199.071 161.929C198.681 161.538 198.047 161.538 197.657 161.929L192 167.586L186.343 161.929C185.953 161.538 185.319 161.538 184.929 161.929C184.538 162.319 184.538 162.953 184.929 163.343L191.293 169.707ZM191 122V169H193V122H191Z" fill="black"/>
<path d="M191.293 363.707C191.683 364.098 192.317 364.098 192.707 363.707L199.071 357.343C199.462 356.953 199.462 356.319 199.071 355.929C198.681 355.538 198.047 355.538 197.657 355.929L192 361.586L186.343 355.929C185.953 355.538 185.319 355.538 184.929 355.929C184.538 356.319 184.538 356.953 184.929 357.343L191.293 363.707ZM191 340V363H193V340H191Z" fill="black"/>
<path d="M193 98C193 97.4477 192.552 97 192 97C191.448 97 191 97.4477 191 98L193 98ZM191.293 121.707C191.683 122.098 192.317 122.098 192.707 121.707L199.071 115.343C199.462 114.953 199.462 114.319 199.071 113.929C198.681 113.538 198.047 113.538 197.657 113.929L192 119.586L186.343 113.929C185.953 113.538 185.319 113.538 184.929 113.929C184.538 114.319 184.538 114.953 184.929 115.343L191.293 121.707ZM191 98L191 121L193 121L193 98L191 98Z" fill="black"/>
<path d="M203.293 133.293C202.902 133.683 202.902 134.317 203.293 134.707L209.657 141.071C210.047 141.462 210.681 141.462 211.071 141.071C211.462 140.681 211.462 140.047 211.071 139.657L205.414 134L211.071 128.343C211.462 127.953 211.462 127.319 211.071 126.929C210.681 126.538 210.047 126.538 209.657 126.929L203.293 133.293ZM204 135H227V133H204V135Z" fill="black"/>
<path d="M191.293 291.707C191.683 292.098 192.317 292.098 192.707 291.707L199.071 285.343C199.462 284.953 199.462 284.319 199.071 283.929C198.681 283.538 198.047 283.538 197.657 283.929L192 289.586L186.343 283.929C185.953 283.538 185.319 283.538 184.929 283.929C184.538 284.319 184.538 284.953 184.929 285.343L191.293 291.707ZM191 268V291H193V268H191Z" fill="black"/>
</svg>
