<svg width="384" height="244" viewBox="0 0 384 244" fill="none" xmlns="http://www.w3.org/2000/svg">
<path d="M383.707 48.7071C384.098 48.3166 384.098 47.6834 383.707 47.2929L377.343 40.9289C376.953 40.5384 376.319 40.5384 375.929 40.9289C375.538 41.3195 375.538 41.9526 375.929 42.3431L381.586 48L375.929 53.6569C375.538 54.0474 375.538 54.6805 375.929 55.0711C376.319 55.4616 376.953 55.4616 377.343 55.0711L383.707 48.7071ZM356 49L383 49V47L356 47V49Z" fill="black"/>
<path d="M383.707 195.707C384.098 195.317 384.098 194.683 383.707 194.293L377.343 187.929C376.953 187.538 376.319 187.538 375.929 187.929C375.538 188.319 375.538 188.953 375.929 189.343L381.586 195L375.929 200.657C375.538 201.047 375.538 201.681 375.929 202.071C376.319 202.462 376.953 202.462 377.343 202.071L383.707 195.707ZM356 196H383V194H356V196Z" fill="black"/>
<path d="M305.707 48.7071C306.098 48.3166 306.098 47.6834 305.707 47.2929L299.343 40.9289C298.953 40.5384 298.319 40.5384 297.929 40.9289C297.538 41.3195 297.538 41.9526 297.929 42.3431L303.586 48L297.929 53.6569C297.538 54.0474 297.538 54.6805 297.929 55.0711C298.319 55.4616 298.953 55.4616 299.343 55.0711L305.707 48.7071ZM217 49H305V47H217V49Z" fill="black"/>
<path d="M305.707 195.707C306.098 195.317 306.098 194.683 305.707 194.293L299.343 187.929C298.953 187.538 298.319 187.538 297.929 187.929C297.538 188.319 297.538 188.953 297.929 189.343L303.586 195L297.929 200.657C297.538 201.047 297.538 201.681 297.929 202.071C298.319 202.462 298.953 202.462 299.343 202.071L305.707 195.707ZM217 196H305V194H217V196Z" fill="black"/>
</svg>
