<svg width="384" height="292" viewBox="0 0 384 292" fill="none" xmlns="http://www.w3.org/2000/svg">
<g clip-path="url(#clip0_98_4)">
<path d="M383.707 50.7071C384.098 50.3166 384.098 49.6834 383.707 49.2929L377.343 42.9289C376.953 42.5384 376.319 42.5384 375.929 42.9289C375.538 43.3195 375.538 43.9526 375.929 44.3431L381.586 50L375.929 55.6569C375.538 56.0474 375.538 56.6805 375.929 57.0711C376.319 57.4616 376.953 57.4616 377.343 57.0711L383.707 50.7071ZM359 51L383 51V49L359 49V51Z" fill="black"/>
<path d="M383.707 243.707C384.098 243.317 384.098 242.683 383.707 242.293L377.343 235.929C376.953 235.538 376.319 235.538 375.929 235.929C375.538 236.319 375.538 236.953 375.929 237.343L381.586 243L375.929 248.657C375.538 249.047 375.538 249.681 375.929 250.071C376.319 250.462 376.953 250.462 377.343 250.071L383.707 243.707ZM359 244H383V242H359V244Z" fill="black"/>
<path d="M312 243.5L360 49.5" stroke="black" stroke-width="2"/>
<path d="M312 49.5L359 244" stroke="black" stroke-width="2"/>
<path d="M24.7071 49.7071C25.0976 49.3166 25.0976 48.6834 24.7071 48.2929L18.3431 41.9289C17.9526 41.5384 17.3195 41.5384 16.9289 41.9289C16.5384 42.3195 16.5384 42.9526 16.9289 43.3431L22.5858 49L16.9289 54.6569C16.5384 55.0474 16.5384 55.6805 16.9289 56.0711C17.3195 56.4616 17.9526 56.4616 18.3431 56.0711L24.7071 49.7071ZM0 50H24V48H0V50Z" fill="black"/>
<path d="M24.7071 243.707C25.0976 243.317 25.0976 242.683 24.7071 242.293L18.3431 235.929C17.9526 235.538 17.3195 235.538 16.9289 235.929C16.5384 236.319 16.5384 236.953 16.9289 237.343L22.5858 243L16.9289 248.657C16.5384 249.047 16.5384 249.681 16.9289 250.071C17.3195 250.462 17.9526 250.462 18.3431 250.071L24.7071 243.707ZM0 244H24V242H0V244Z" fill="black"/>
<path d="M266.707 61.2929C266.317 60.9024 265.683 60.9024 265.293 61.2929L258.929 67.6569C258.538 68.0474 258.538 68.6805 258.929 69.0711C259.319 69.4616 259.953 69.4616 260.343 69.0711L266 63.4142L271.657 69.0711C272.047 69.4616 272.681 69.4616 273.071 69.0711C273.462 68.6805 273.462 68.0474 273.071 67.6569L266.707 61.2929ZM265 62L265 119L267 119L267 62L265 62Z" fill="black"/>
<circle cx="266" cy="50" r="11" stroke="black" stroke-width="2"/>
<path d="M253.707 50.7071C254.098 50.3166 254.098 49.6834 253.707 49.2929L247.343 42.9289C246.953 42.5384 246.319 42.5384 245.929 42.9289C245.538 43.3195 245.538 43.9526 245.929 44.3431L251.586 50L245.929 55.6569C245.538 56.0474 245.538 56.6805 245.929 57.0711C246.319 57.4616 246.953 57.4616 247.343 57.0711L253.707 50.7071ZM217 51L253 51V49L217 49V51Z" fill="black"/>
<line x1="254" y1="50" x2="313" y2="50" stroke="black" stroke-width="2"/>
<line x1="266" y1="40" x2="266" y2="60" stroke="black" stroke-width="2"/>
<line x1="217" y1="243" x2="313" y2="243" stroke="black" stroke-width="2"/>
<path d="M266.707 171.293C266.317 170.902 265.683 170.902 265.293 171.293L258.929 177.657C258.538 178.047 258.538 178.681 258.929 179.071C259.319 179.462 259.953 179.462 260.343 179.071L266 173.414L271.657 179.071C272.047 179.462 272.681 179.462 273.071 179.071C273.462 178.681 273.462 178.047 273.071 177.657L266.707 171.293ZM267 243V172H265V243H267Z" fill="black"/>
</g>
<defs>
<clipPath id="clip0_98_4">
<rect width="384" height="292" fill="white"/>
</clipPath>
</defs>
</svg>
