<svg width="384" height="292" viewBox="0 0 384 292" fill="none" xmlns="http://www.w3.org/2000/svg">
<path d="M265.293 119.707C265.683 120.098 266.317 120.098 266.707 119.707L273.071 113.343C273.462 112.953 273.462 112.319 273.071 111.929C272.681 111.538 272.047 111.538 271.657 111.929L266 117.586L260.343 111.929C259.953 111.538 259.319 111.538 258.929 111.929C258.538 112.319 258.538 112.953 258.929 113.343L265.293 119.707ZM265 49L265 119L267 119L267 49L265 49Z" fill="black"/>
<circle cx="266" cy="243" r="11" stroke="black" stroke-width="2"/>
<path d="M253.707 243.707C254.098 243.317 254.098 242.683 253.707 242.293L247.343 235.929C246.953 235.538 246.319 235.538 245.929 235.929C245.538 236.319 245.538 236.953 245.929 237.343L251.586 243L245.929 248.657C245.538 249.047 245.538 249.681 245.929 250.071C246.319 250.462 246.953 250.462 247.343 250.071L253.707 243.707ZM218 244H253V242H218V244Z" fill="black"/>
<path d="M383.707 50.7071C384.098 50.3166 384.098 49.6834 383.707 49.2929L377.343 42.9289C376.953 42.5384 376.319 42.5384 375.929 42.9289C375.538 43.3195 375.538 43.9526 375.929 44.3431L381.586 50L375.929 55.6569C375.538 56.0474 375.538 56.6805 375.929 57.0711C376.319 57.4616 376.953 57.4616 377.343 57.0711L383.707 50.7071ZM359 51L383 51V49L359 49V51Z" fill="black"/>
<path d="M383.707 243.707C384.098 243.317 384.098 242.683 383.707 242.293L377.343 235.929C376.953 235.538 376.319 235.538 375.929 235.929C375.538 236.319 375.538 236.953 375.929 237.343L381.586 243L375.929 248.657C375.538 249.047 375.538 249.681 375.929 250.071C376.319 250.462 376.953 250.462 377.343 250.071L383.707 243.707ZM359 244H383V242H359V244Z" fill="black"/>
<line x1="254" y1="243" x2="314" y2="243" stroke="black" stroke-width="2"/>
<line x1="266" y1="233" x2="266" y2="253" stroke="black" stroke-width="2"/>
<path d="M267 172C267 171.448 266.552 171 266 171C265.448 171 265 171.448 265 172L267 172ZM265.293 230.707C265.683 231.098 266.317 231.098 266.707 230.707L273.071 224.343C273.462 223.953 273.462 223.319 273.071 222.929C272.681 222.538 272.047 222.538 271.657 222.929L266 228.586L260.343 222.929C259.953 222.538 259.319 222.538 258.929 222.929C258.538 223.319 258.538 223.953 258.929 224.343L265.293 230.707ZM265 172L265 230L267 230L267 172L265 172Z" fill="black"/>
<line x1="217" y1="49" x2="313" y2="49" stroke="black" stroke-width="2"/>
<path d="M313.027 243.769L360 49.5" stroke="black" stroke-width="2"/>
<path d="M312 48.5L359.972 243.766" stroke="black" stroke-width="2"/>
</svg>
