<svg width="384" height="164" viewBox="0 0 384 164" fill="none" xmlns="http://www.w3.org/2000/svg">
<path d="M235.293 49.7071C235.683 50.0976 236.317 50.0976 236.707 49.7071L243.071 43.3431C243.462 42.9526 243.462 42.3195 243.071 41.9289C242.681 41.5384 242.047 41.5384 241.657 41.9289L236 47.5858L230.343 41.9289C229.953 41.5384 229.319 41.5384 228.929 41.9289C228.538 42.3195 228.538 42.9526 228.929 43.3431L235.293 49.7071ZM235 25L235 49L237 49L237 25L235 25Z" fill="black"/>
<path d="M235.293 137.707C235.683 138.098 236.317 138.098 236.707 137.707L243.071 131.343C243.462 130.953 243.462 130.319 243.071 129.929C242.681 129.538 242.047 129.538 241.657 129.929L236 135.586L230.343 129.929C229.953 129.538 229.319 129.538 228.929 129.929C228.538 130.319 228.538 130.953 228.929 131.343L235.293 137.707ZM235 113L235 137L237 137L237 113L235 113Z" fill="black"/>
<path d="M138.707 82.7071C139.098 82.3166 139.098 81.6834 138.707 81.2929L132.343 74.9289C131.953 74.5384 131.319 74.5384 130.929 74.9289C130.538 75.3195 130.538 75.9526 130.929 76.3431L136.586 82L130.929 87.6569C130.538 88.0474 130.538 88.6805 130.929 89.0711C131.319 89.4616 131.953 89.4616 132.343 89.0711L138.707 82.7071ZM115 83H138V81H115V83Z" fill="black"/>
</svg>
