<svg width="384" height="164" viewBox="0 0 384 164" fill="none" xmlns="http://www.w3.org/2000/svg">
<rect x="142.5" y="0.5" width="193" height="25" stroke="black"/>
<rect x="142.5" y="138.5" width="193" height="25" stroke="black"/>
<rect x="54.5" y="69.5" width="63" height="23" stroke="black"/>
<rect x="142.5" y="50.5" width="193" height="63" stroke="black"/>
<path d="M238.293 49.7071C238.683 50.0976 239.317 50.0976 239.707 49.7071L246.071 43.3431C246.462 42.9526 246.462 42.3195 246.071 41.9289C245.681 41.5384 245.047 41.5384 244.657 41.9289L239 47.5858L233.343 41.9289C232.953 41.5384 232.319 41.5384 231.929 41.9289C231.538 42.3195 231.538 42.9526 231.929 43.3431L238.293 49.7071ZM238 25L238 49L240 49L240 25L238 25Z" fill="black"/>
<path d="M238.293 137.707C238.683 138.098 239.317 138.098 239.707 137.707L246.071 131.343C246.462 130.953 246.462 130.319 246.071 129.929C245.681 129.538 245.047 129.538 244.657 129.929L239 135.586L233.343 129.929C232.953 129.538 232.319 129.538 231.929 129.929C231.538 130.319 231.538 130.953 231.929 131.343L238.293 137.707ZM238 113L238 137L240 137L240 113L238 113Z" fill="black"/>
<path d="M141.707 82.7071C142.098 82.3166 142.098 81.6834 141.707 81.2929L135.343 74.9289C134.953 74.5384 134.319 74.5384 133.929 74.9289C133.538 75.3195 133.538 75.9526 133.929 76.3431L139.586 82L133.929 87.6569C133.538 88.0474 133.538 88.6805 133.929 89.0711C134.319 89.4616 134.953 89.4616 135.343 89.0711L141.707 82.7071ZM118 83H141V81H118V83Z" fill="black"/>
</svg>
