<svg width="384" height="150" viewBox="0 0 384 150" fill="none" xmlns="http://www.w3.org/2000/svg">
<path d="M238.293 49.7071C238.683 50.0976 239.317 50.0976 239.707 49.7071L246.071 43.3431C246.462 42.9526 246.462 42.3195 246.071 41.9289C245.681 41.5384 245.047 41.5384 244.657 41.9289L239 47.5858L233.343 41.9289C232.953 41.5384 232.319 41.5384 231.929 41.9289C231.538 42.3195 231.538 42.9526 231.929 43.3431L238.293 49.7071ZM238 25L238 49L240 49L240 25L238 25Z" fill="black"/>
<path d="M238.293 123.707C238.683 124.098 239.317 124.098 239.707 123.707L246.071 117.343C246.462 116.953 246.462 116.319 246.071 115.929C245.681 115.538 245.047 115.538 244.657 115.929L239 121.586L233.343 115.929C232.953 115.538 232.319 115.538 231.929 115.929C231.538 116.319 231.538 116.953 231.929 117.343L238.293 123.707ZM238 100L238 123L240 123L240 100L238 100Z" fill="black"/>
<path d="M189.707 75.7071C190.098 75.3166 190.098 74.6834 189.707 74.2929L183.343 67.9289C182.953 67.5384 182.319 67.5384 181.929 67.9289C181.538 68.3195 181.538 68.9526 181.929 69.3431L187.586 75L181.929 80.6569C181.538 81.0474 181.538 81.6805 181.929 82.0711C182.319 82.4616 182.953 82.4616 183.343 82.0711L189.707 75.7071ZM166 76H189V74H166V76Z" fill="black"/>
</svg>
