<svg width="384" height="212" viewBox="0 0 384 212" fill="none" xmlns="http://www.w3.org/2000/svg">
<path d="M238.293 50.7071C238.683 51.0976 239.317 51.0976 239.707 50.7071L246.071 44.3431C246.462 43.9526 246.462 43.3195 246.071 42.9289C245.681 42.5384 245.047 42.5384 244.657 42.9289L239 48.5858L233.343 42.9289C232.953 42.5384 232.319 42.5384 231.929 42.9289C231.538 43.3195 231.538 43.9526 231.929 44.3431L238.293 50.7071ZM238 26L238 50L240 50L240 26L238 26Z" fill="black"/>
<path d="M238.293 171.707C238.683 172.098 239.317 172.098 239.707 171.707L246.071 165.343C246.462 164.953 246.462 164.319 246.071 163.929C245.681 163.538 245.047 163.538 244.657 163.929L239 169.586L233.343 163.929C232.953 163.538 232.319 163.538 231.929 163.929C231.538 164.319 231.538 164.953 231.929 165.343L238.293 171.707ZM238 147L238 171L240 171L240 147L238 147Z" fill="black"/>
<circle cx="239" cy="62" r="11" stroke="black" stroke-width="2"/>
<path d="M238.293 97.7071C238.683 98.0976 239.317 98.0976 239.707 97.7071L246.071 91.3431C246.462 90.9526 246.462 90.3195 246.071 89.9289C245.681 89.5384 245.047 89.5384 244.657 89.9289L239 95.5858L233.343 89.9289C232.953 89.5384 232.319 89.5384 231.929 89.9289C231.538 90.3195 231.538 90.9526 231.929 91.3431L238.293 97.7071ZM238 51L238 97H240L240 51H238Z" fill="black"/>
<line x1="228.5" y1="62" x2="250.5" y2="62" stroke="black" stroke-width="2"/>
<line x1="336" y1="185" x2="360" y2="185" stroke="black" stroke-width="2"/>
<line x1="360" y1="186" x2="360" y2="61" stroke="black" stroke-width="2"/>
<path d="M383.707 62.7071C384.098 62.3166 384.098 61.6834 383.707 61.2929L377.343 54.9289C376.953 54.5384 376.319 54.5384 375.929 54.9289C375.538 55.3195 375.538 55.9526 375.929 56.3431L381.586 62L375.929 67.6569C375.538 68.0474 375.538 68.6805 375.929 69.0711C376.319 69.4616 376.953 69.4616 377.343 69.0711L383.707 62.7071ZM360 63L383 63V61L360 61V63Z" fill="black"/>
<path d="M226.707 62.7071C227.098 62.3166 227.098 61.6834 226.707 61.2929L220.343 54.9289C219.953 54.5384 219.319 54.5384 218.929 54.9289C218.538 55.3195 218.538 55.9526 218.929 56.3431L224.586 62L218.929 67.6569C218.538 68.0474 218.538 68.6805 218.929 69.0711C219.319 69.4616 219.953 69.4616 220.343 69.0711L226.707 62.7071ZM203 63L226 63V61L203 61V63Z" fill="black"/>
</svg>
