<svg width="384" height="255" viewBox="0 0 384 255" fill="none" xmlns="http://www.w3.org/2000/svg">
<path d="M238.293 49.7071C238.683 50.0976 239.317 50.0976 239.707 49.7071L246.071 43.3431C246.462 42.9526 246.462 42.3195 246.071 41.9289C245.681 41.5384 245.047 41.5384 244.657 41.9289L239 47.5858L233.343 41.9289C232.953 41.5384 232.319 41.5384 231.929 41.9289C231.538 42.3195 231.538 42.9526 231.929 43.3431L238.293 49.7071ZM238 26L238 49L240 49L240 26L238 26Z" fill="black"/>
<path d="M238.293 147.707C238.683 148.098 239.317 148.098 239.707 147.707L246.071 141.343C246.462 140.953 246.462 140.319 246.071 139.929C245.681 139.538 245.047 139.538 244.657 139.929L239 145.586L233.343 139.929C232.953 139.538 232.319 139.538 231.929 139.929C231.538 140.319 231.538 140.953 231.929 141.343L238.293 147.707ZM238 100V147H240V100H238Z" fill="black"/>
<circle cx="239" cy="160" r="11" stroke="black" stroke-width="2"/>
<path d="M349 124V13" stroke="black" stroke-width="2"/>
<line x1="228.5" y1="160" x2="250.5" y2="160" stroke="black" stroke-width="2"/>
<line x1="239" y1="172" x2="239" y2="148" stroke="black" stroke-width="2"/>
<path d="M238.293 195.707C238.683 196.098 239.317 196.098 239.707 195.707L246.071 189.343C246.462 188.953 246.462 188.319 246.071 187.929C245.681 187.538 245.047 187.538 244.657 187.929L239 193.586L233.343 187.929C232.953 187.538 232.319 187.538 231.929 187.929C231.538 188.319 231.538 188.953 231.929 189.343L238.293 195.707ZM238 172V195H240V172H238Z" fill="black"/>
<line x1="239" y1="123" x2="349" y2="123" stroke="black" stroke-width="2"/>
<path d="M189.707 75.7071C190.098 75.3166 190.098 74.6834 189.707 74.2929L183.343 67.9289C182.953 67.5384 182.319 67.5384 181.929 67.9289C181.538 68.3195 181.538 68.9526 181.929 69.3431L187.586 75L181.929 80.6569C181.538 81.0474 181.538 81.6805 181.929 82.0711C182.319 82.4616 182.953 82.4616 183.343 82.0711L189.707 75.7071ZM166 76H189V74H166V76Z" fill="black"/>
<path d="M226.707 160.707C227.098 160.317 227.098 159.683 226.707 159.293L220.343 152.929C219.953 152.538 219.319 152.538 218.929 152.929C218.538 153.319 218.538 153.953 218.929 154.343L224.586 160L218.929 165.657C218.538 166.047 218.538 166.681 218.929 167.071C219.319 167.462 219.953 167.462 220.343 167.071L226.707 160.707ZM203 161H226V159H203V161Z" fill="black"/>
<path d="M383.707 13.7071C384.098 13.3166 384.098 12.6834 383.707 12.2929L377.343 5.92893C376.953 5.53841 376.319 5.53841 375.929 5.92893C375.538 6.31946 375.538 6.95262 375.929 7.34315L381.586 13L375.929 18.6569C375.538 19.0474 375.538 19.6805 375.929 20.0711C376.319 20.4616 376.953 20.4616 377.343 20.0711L383.707 13.7071ZM348 14L383 14V12L348 12V14Z" fill="black"/>
<path d="M141.707 13.7071C142.098 13.3166 142.098 12.6834 141.707 12.2929L135.343 5.92893C134.953 5.53841 134.319 5.53841 133.929 5.92893C133.538 6.31946 133.538 6.95262 133.929 7.34315L139.586 13L133.929 18.6569C133.538 19.0474 133.538 19.6805 133.929 20.0711C134.319 20.4616 134.953 20.4616 135.343 20.0711L141.707 13.7071ZM0 14L141 14V12L0 12L0 14Z" fill="black"/>
</svg>
