<svg width="384" height="255" viewBox="0 0 384 255" fill="none" xmlns="http://www.w3.org/2000/svg">
<path d="M238.293 73.7071C238.683 74.0976 239.317 74.0976 239.707 73.7071L246.071 67.3431C246.462 66.9526 246.462 66.3195 246.071 65.9289C245.681 65.5384 245.047 65.5384 244.657 65.9289L239 71.5858L233.343 65.9289C232.953 65.5384 232.319 65.5384 231.929 65.9289C231.538 66.3195 231.538 66.9526 231.929 67.3431L238.293 73.7071ZM238 26L238 73L240 73L240 26L238 26Z" fill="black"/>
<path d="M238.293 219.707C238.683 220.098 239.317 220.098 239.707 219.707L246.071 213.343C246.462 212.953 246.462 212.319 246.071 211.929C245.681 211.538 245.047 211.538 244.657 211.929L239 217.586L233.343 211.929C232.953 211.538 232.319 211.538 231.929 211.929C231.538 212.319 231.538 212.953 231.929 213.343L238.293 219.707ZM238 172V219H240V172H238Z" fill="black"/>
<circle cx="239" cy="86" r="11" stroke="black" stroke-width="2"/>
<circle cx="348" cy="86" r="11" stroke="black" stroke-width="2"/>
<path d="M238.293 121.707C238.683 122.098 239.317 122.098 239.707 121.707L246.071 115.343C246.462 114.953 246.462 114.319 246.071 113.929C245.681 113.538 245.047 113.538 244.657 113.929L239 119.586L233.343 113.929C232.953 113.538 232.319 113.538 231.929 113.929C231.538 114.319 231.538 114.953 231.929 115.343L238.293 121.707ZM238 75L238 121H240L240 75H238Z" fill="black"/>
<path d="M347.293 73.7071C347.683 74.0976 348.317 74.0976 348.707 73.7071L355.071 67.3431C355.462 66.9526 355.462 66.3195 355.071 65.9289C354.681 65.5384 354.047 65.5384 353.657 65.9289L348 71.5858L342.343 65.9289C341.953 65.5384 341.319 65.5384 340.929 65.9289C340.538 66.3195 340.538 66.9526 340.929 67.3431L347.293 73.7071ZM347 50L347 73H349L349 50H347Z" fill="black"/>
<path d="M348.707 98.2929C348.317 97.9024 347.683 97.9024 347.293 98.2929L340.929 104.657C340.538 105.047 340.538 105.681 340.929 106.071C341.319 106.462 341.953 106.462 342.343 106.071L348 100.414L353.657 106.071C354.047 106.462 354.681 106.462 355.071 106.071C355.462 105.681 355.462 105.047 355.071 104.657L348.707 98.2929ZM349 195V99H347V195H349Z" fill="black"/>
<line x1="228.5" y1="86" x2="250.5" y2="86" stroke="black" stroke-width="2"/>
<line x1="337.5" y1="86" x2="359.5" y2="86" stroke="black" stroke-width="2"/>
<line x1="348" y1="98" x2="348" y2="74" stroke="black" stroke-width="2"/>
<path d="M383.707 86.7071C384.098 86.3166 384.098 85.6834 383.707 85.2929L377.343 78.9289C376.953 78.5384 376.319 78.5384 375.929 78.9289C375.538 79.3195 375.538 79.9526 375.929 80.3431L381.586 86L375.929 91.6569C375.538 92.0474 375.538 92.6805 375.929 93.0711C376.319 93.4616 376.953 93.4616 377.343 93.0711L383.707 86.7071ZM360 87H383V85H360V87Z" fill="black"/>
<path d="M226.707 86.7071C227.098 86.3166 227.098 85.6834 226.707 85.2929L220.343 78.9289C219.953 78.5384 219.319 78.5384 218.929 78.9289C218.538 79.3195 218.538 79.9526 218.929 80.3431L224.586 86L218.929 91.6569C218.538 92.0474 218.538 92.6805 218.929 93.0711C219.319 93.4616 219.953 93.4616 220.343 93.0711L226.707 86.7071ZM203 87H226V85H203V87Z" fill="black"/>
<line x1="239" y1="50" x2="349" y2="50" stroke="black" stroke-width="2"/>
<line x1="239" y1="195" x2="349" y2="195" stroke="black" stroke-width="2"/>
<path d="M189.707 147.707C190.098 147.317 190.098 146.683 189.707 146.293L183.343 139.929C182.953 139.538 182.319 139.538 181.929 139.929C181.538 140.319 181.538 140.953 181.929 141.343L187.586 147L181.929 152.657C181.538 153.047 181.538 153.681 181.929 154.071C182.319 154.462 182.953 154.462 183.343 154.071L189.707 147.707ZM166 148H189V146H166V148Z" fill="black"/>
</svg>
